<?xml version="1.0" encoding="UTF-8"?>
<svg id="Calque_1" data-name="Calque 1" xmlns="http://www.w3.org/2000/svg" viewBox="0 0 1000 1000">
  <defs>
    <style>
      .cls-1 {
        fill: #29abe2;
      }
    </style>
  </defs>
  <path class="cls-1" d="M794.85,496.92l.84,21.48,1.38,37.53,1.44,48.48,1.12,50.48,4.17,37.46,2.17,25.03c47.96-81.87,65.37-174.59,68.98-268.53-24.41,19.21-51.23,35.16-80.1,48.07ZM748.45,750.15l-3.37-40.71-6.26-56.88c-6.45-.51-12.2-.14-18.24.95l-12.3,2.22c-15.01,47.27-36.32,91.2-66.22,130.29l-17.09,20.26c-7.33,8.7-15.03,17.48-24.9,23.54-11.7,7.2-28.09,4.58-37.1-5.27-12.57-13.75-9.39-33.26,3.9-45.02,42.67-37.79,73.18-99.33,88-154.63.31-32.86-2.58-64.74-7.33-97.9-54.79.94-109.15-10.3-160.54-27.94v475.64l3.53,2.5c5.82,4.11,13.61,4.09,19.41-.06l129.46-92.78c.28-.2.56-.41.82-.62l85.85-69.91c.26-.21.52-.43.77-.66,8.36-7.69,16.45-15.14,24.19-22.91l-2.58-40.11ZM310,64.23v780c10.28,8.51,20.58,16.87,31,25.1V57.02l-31,7.21ZM137.84,104.27c-7.59,1.76-12.96,8.54-12.94,16.34l.54,211.31-.37,102.67c1.77,78.81,13.21,158.87,43.93,231.86V97.02l-31.16,7.25ZM224,84.23v676.94c2.79,3.61,5.66,7.18,8.6,10.71,7.08,8.5,14.59,16.39,22.4,23.97V77.02l-31,7.21ZM396,44.23v866.15l36,25.45V35.85l-36,8.38ZM875.46,120.56c0-7.79-5.36-14.56-12.95-16.32L504.01,20.87c-2.5-.58-5.09-.58-7.58,0l-9.43,2.19v412.33c49.6,18.44,89.99,28.62,145.97,32.26,10.23.67,19.61.4,29.92-.11,81.42-4.1,159.38-38.39,212.31-99.95l-.11-35.66.37-211.37ZM685.94,450.63c-62.08,0-112.41-50.33-112.41-112.41s50.33-112.4,112.41-112.4,112.4,50.32,112.4,112.4-50.32,112.41-112.4,112.41Z"/>
</svg>